<svg version="1.1" id="book" xmlns="http://www.w3.org/2000/svg" xmlns:xlink="http://www.w3.org/1999/xlink" x="0" y="0" viewBox="0 0 445.1 639" xml:space="preserve"><style>.st1{fill-rule:evenodd;clip-rule:evenodd;fill:#65e496}</style><path id="book-2" d="M5 0h435c2.8 0 5 2.2 5 5v629c0 2.8-2.2 5-5 5H5c-2.8 0-5-2.2-5-5V5c0-2.8 2.2-5 5-5z" fill="#44444f"/><path id="Rectangle_10_copy" class="st1" d="M376.1 536l165.4-165.4c12.1-12 31.5-11.9 43.5.2 11.9 12 11.9 31.3 0 43.3L419.5 579.5c-12 12-31.5 12-43.5 0s-12-31.4.1-43.5z"/><path id="Rectangle_10_copy_2" class="st1" d="M295.3 490.2l165.4-165.4c12.1-12 31.5-11.9 43.5.2 11.9 12 11.9 31.3 0 43.3L338.7 533.7c-12 12-31.5 12-43.5 0-11.9-12-11.9-31.5.1-43.5z"/><path fill="#3d3d47" d="M0 0h62.7v639H0z"/></svg>