<svg version="1.1" id="book_img" xmlns="http://www.w3.org/2000/svg" xmlns:xlink="http://www.w3.org/1999/xlink" x="0" y="0" viewBox="0 0 268.9 409" xml:space="preserve"><style>.st1{fill-rule:evenodd;clip-rule:evenodd;fill:#65e496}</style><path id="book" d="M5 0h258.9c2.8 0 5 2.2 5 5v399c0 2.8-2.2 5-5 5H5c-2.8 0-5-2.2-5-5V5c0-2.8 2.2-5 5-5z" fill="#44444f"/><path class="st1" d="M250.7 294.2l105.7-61c2.4-1.4 5.4-.6 6.8 1.8 1.4 2.4.6 5.4-1.8 6.8h-.1l-105.7 61c-2.4 1.4-5.5.5-6.8-1.9-1.3-2.3-.5-5.3 1.9-6.7z"/><path id="Rectangle_11_copy" class="st1" d="M250.7 267.2l105.7-61c2.4-1.4 5.4-.6 6.8 1.8 1.4 2.4.6 5.4-1.8 6.8h-.1l-105.7 61c-2.4 1.4-5.5.5-6.8-1.9-1.3-2.3-.5-5.3 1.9-6.7z"/><path fill="#3d3d47" d="M0 0h37.9v409H0z"/></svg>