<svg version="1.1" id="Logo" xmlns="http://www.w3.org/2000/svg" xmlns:xlink="http://www.w3.org/1999/xlink" x="0" y="0" viewBox="0 0 142.5 55" xml:space="preserve"><path d="M0 1.5h51.7v52H0v-52z" fill-rule="evenodd" clip-rule="evenodd" fill="#f4f5f9"/><path id="Rectangle_1_copy" d="M42 1.5h99v52H42v-52z" fill="none" stroke="#f4f5f9" stroke-width="3"/><path d="M17.6 16h7.9c3.6 0 6.2.5 7.9 1.6 1.6 1 2.5 2.7 2.5 4.9 0 1.5-.4 2.8-1.1 3.8-.7 1-1.7 1.6-2.9 1.8v.2c1.6.4 2.8 1 3.5 2 .7 1 1.1 2.3 1.1 4 0 2.3-.8 4.2-2.5 5.5-1.7 1.3-4 2-6.9 2h-9.6V16zM23 26.1h3.1c1.5 0 2.5-.2 3.2-.7.7-.5 1-1.2 1-2.3 0-1-.4-1.7-1.1-2.1-.7-.4-1.8-.6-3.4-.6H23v5.7zm0 4.4v6.7h3.5c1.5 0 2.6-.3 3.3-.9s1.1-1.5 1.1-2.6c0-2.1-1.5-3.2-4.5-3.2H23z" fill="#4a4c55"/><path d="M65.3 41.1V15.4h1.8v25.7h-1.8zm27.6 0h-1.8L76 18.3h-.1c.1 2.7.2 4.8.2 6.2v16.7h-1.7V15.4h1.8l15.1 22.8h.1c-.1-2.1-.2-4.1-.2-6V15.4h1.7v25.7zm28.7-12.9c0 4.1-1 7.3-3 9.7-2 2.4-4.8 3.6-8.4 3.6-3.6 0-6.3-1.2-8.4-3.6-2-2.4-3-5.6-3-9.7s1-7.3 3.1-9.7 4.8-3.5 8.4-3.5c3.6 0 6.4 1.2 8.4 3.5s2.9 5.6 2.9 9.7zm-20.9 0c0 3.7.8 6.5 2.4 8.5s4 3 7 3c3.1 0 5.4-1 7-3 1.6-2 2.4-4.8 2.4-8.6 0-3.7-.8-6.5-2.4-8.5-1.6-2-4-3-7-3s-5.4 1-7 3-2.4 4.9-2.4 8.6z" fill="#f1ebe7"/></svg>