<?xml version="1.0" encoding="utf-8"?>
<!-- Generator: Adobe Illustrator 23.0.3, SVG Export Plug-In . SVG Version: 6.00 Build 0)  -->
<svg version="1.1" id="book_img" xmlns="http://www.w3.org/2000/svg" xmlns:xlink="http://www.w3.org/1999/xlink" x="0px" y="0px"
	 viewBox="0 0 268.9 409" style="enable-background:new 0 0 268.9 409;" xml:space="preserve">
<style type="text/css">
	.st0{fill:#44444F;}
	.st1{fill-rule:evenodd;clip-rule:evenodd;fill:#65E496;}
	.st2{fill:#3D3D47;}
</style>
<path id="book" class="st0" d="M5,0h258.9c2.8,0,5,2.2,5,5v399c0,2.8-2.2,5-5,5H5c-2.8,0-5-2.2-5-5V5C0,2.2,2.2,0,5,0z"/>
<path class="st1" d="M250.7,294.2l105.7-61c2.4-1.4,5.4-0.6,6.8,1.8c1.4,2.4,0.6,5.4-1.8,6.8c0,0,0,0-0.1,0l-105.7,61
	c-2.4,1.4-5.5,0.5-6.8-1.9C247.5,298.6,248.3,295.6,250.7,294.2z"/>
<path id="Rectangle_11_copy" class="st1" d="M250.7,267.2l105.7-61c2.4-1.4,5.4-0.6,6.8,1.8c1.4,2.4,0.6,5.4-1.8,6.8c0,0,0,0-0.1,0
	l-105.7,61c-2.4,1.4-5.5,0.5-6.8-1.9C247.5,271.6,248.3,268.6,250.7,267.2z"/>
<rect y="0" class="st2" width="37.9" height="409"/>
</svg>
