<?xml version="1.0" encoding="utf-8"?>
<!-- Generator: Adobe Illustrator 23.0.3, SVG Export Plug-In . SVG Version: 6.00 Build 0)  -->
<svg version="1.1" id="Logo" xmlns="http://www.w3.org/2000/svg" xmlns:xlink="http://www.w3.org/1999/xlink" x="0px" y="0px"
	 viewBox="0 0 142.5 55" style="enable-background:new 0 0 142.5 55;" xml:space="preserve">
<style type="text/css">
	.st0{fill-rule:evenodd;clip-rule:evenodd;fill:#F4F5F9;}
	.st1{fill:none;stroke:#F4F5F9;stroke-width:3;}
	.st2{enable-background:new    ;}
	.st3{fill:#4A4C55;}
	.st4{fill:#F1EBE7;}
</style>
<path class="st0" d="M0,1.5h51.7v52H0V1.5z"/>
<path id="Rectangle_1_copy" class="st1" d="M42,1.5h99v52H42V1.5z"/>
<g class="st2">
	<path class="st3" d="M17.6,16h7.9c3.6,0,6.2,0.5,7.9,1.6c1.6,1,2.5,2.7,2.5,4.9c0,1.5-0.4,2.8-1.1,3.8c-0.7,1-1.7,1.6-2.9,1.8v0.2
		c1.6,0.4,2.8,1,3.5,2c0.7,1,1.1,2.3,1.1,4c0,2.3-0.8,4.2-2.5,5.5c-1.7,1.3-4,2-6.9,2h-9.6V16z M23,26.1h3.1c1.5,0,2.5-0.2,3.2-0.7
		c0.7-0.5,1-1.2,1-2.3c0-1-0.4-1.7-1.1-2.1c-0.7-0.4-1.8-0.6-3.4-0.6H23V26.1z M23,30.5v6.7h3.5c1.5,0,2.6-0.3,3.3-0.9
		s1.1-1.5,1.1-2.6c0-2.1-1.5-3.2-4.5-3.2H23z"/>
</g>
<g class="st2">
	<path class="st4" d="M65.3,41.1V15.4h1.8v25.7H65.3z"/>
	<path class="st4" d="M92.9,41.1h-1.8L76,18.3h-0.1c0.1,2.7,0.2,4.8,0.2,6.2v16.7h-1.7V15.4h1.8l15.1,22.8h0.1
		c-0.1-2.1-0.2-4.1-0.2-6V15.4h1.7V41.1z"/>
	<path class="st4" d="M121.6,28.2c0,4.1-1,7.3-3,9.7c-2,2.4-4.8,3.6-8.4,3.6c-3.6,0-6.3-1.2-8.4-3.6c-2-2.4-3-5.6-3-9.7
		c0-4.1,1-7.3,3.1-9.7s4.8-3.5,8.4-3.5c3.6,0,6.4,1.2,8.4,3.5S121.6,24.1,121.6,28.2z M100.7,28.2c0,3.7,0.8,6.5,2.4,8.5s4,3,7,3
		c3.1,0,5.4-1,7-3c1.6-2,2.4-4.8,2.4-8.6c0-3.7-0.8-6.5-2.4-8.5c-1.6-2-4-3-7-3c-3,0-5.4,1-7,3S100.7,24.5,100.7,28.2z"/>
</g>
</svg>
